<?xml version="1.0" encoding="utf-8"?>
<!-- Generator: Adobe Illustrator 19.2.0, SVG Export Plug-In . SVG Version: 6.00 Build 0)  -->
<svg version="1.1" id="Capa_1" xmlns="http://www.w3.org/2000/svg" xmlns:xlink="http://www.w3.org/1999/xlink" x="0px" y="0px"
	 viewBox="0 0 512 512" style="enable-background:new 0 0 512 512;" xml:space="preserve">
<style type="text/css">
	.st0{fill:#D32F2F;}
	.st1{fill:#AF2F2F;}
	.st2{fill:#DDDDDD;}
	.st3{fill:#BC2E2E;}
	.st4{fill:#932B2B;}
</style>
<g>
	<rect x="27.3" y="53.4" class="st0" width="468.7" height="81.1"/>
	<rect x="62.6" y="134.4" class="st1" width="393.8" height="377.6"/>
	<path class="st0" d="M377.8,98.5H138.2c-6.6,0-12-5.4-12-12V12c0-6.6,5.4-12,12-12h239.7c6.6,0,12,5.4,12,12v74.5
		C389.8,93.1,384.4,98.5,377.8,98.5z"/>
	<path class="st2" d="M162.7,458.6h-12.6c-6.6,0-12-5.4-12-12V225.4c0-6.6,5.4-12,12-12h12.6c6.6,0,12,5.4,12,12v221.2
		C174.7,453.2,169.3,458.6,162.7,458.6z"/>
	<path class="st2" d="M268,458.6h-12.6c-6.6,0-12-5.4-12-12V225.4c0-6.6,5.4-12,12-12H268c6.6,0,12,5.4,12,12v221.2
		C280,453.2,274.6,458.6,268,458.6z"/>
	<path class="st2" d="M369.6,458.6H357c-6.6,0-12-5.4-12-12V225.4c0-6.6,5.4-12,12-12h12.6c6.6,0,12,5.4,12,12v221.2
		C381.6,453.2,376.2,458.6,369.6,458.6z"/>
	<rect x="261.7" y="53.4" class="st3" width="234.4" height="81.1"/>
	<polygon class="st4" points="62.6,192.3 62.6,134.4 456.4,134.4 	"/>
</g>
</svg>
