<svg id="Capa_1" data-name="Capa 1" xmlns="http://www.w3.org/2000/svg" viewBox="0 0 431 508.45"><defs><style>.cls-1{fill:#e76a69;}.cls-2{fill:#929497;}.cls-3{fill:#797b7d;}.cls-4{fill:#58595b;}.cls-5{fill:#3d3e3f;}.cls-6{fill:#faaf40;}.cls-7{fill:#eca13d;}.cls-8{fill:#cfa275;}.cls-9{fill:#b9906c;}</style></defs><title>edit-icon</title><path class="cls-1" d="M443.06,19.93c57.84,49.51,9.55,101.69,9.55,101.69L342.53,30.77S388.84-26.49,443.06,19.93Z" transform="translate(-40.5 -1.78)"/><polygon class="cls-2" points="358.63 187.27 248 95.98 307.67 22.03 418.3 113.32 358.63 187.27"/><polygon class="cls-3" points="358.63 187.27 304.02 142.2 363.69 68.25 418.3 113.32 358.63 187.27"/><polygon class="cls-4" points="10.98 507.46 65.89 508.19 0.54 454.26 10.98 507.46"/><polygon class="cls-5" points="19.58 507.57 65.89 508.19 36.2 483.73 19.58 507.57"/><polygon class="cls-6" points="124.34 481.44 13.08 390.69 274.57 62.92 385.83 153.68 124.34 481.44"/><polygon class="cls-7" points="124.34 481.44 69.47 436.68 330.95 108.92 385.83 153.68 124.34 481.44"/><polygon class="cls-8" points="66.45 508.45 0 453.77 12.59 390.24 124.77 481.74 66.45 508.45"/><polygon class="cls-9" points="66.45 508.45 36.26 483.65 69.08 436.32 124.77 481.74 66.45 508.45"/></svg>