<svg id="Capa_1" data-name="Capa 1" xmlns="http://www.w3.org/2000/svg" viewBox="0 0 431 508.45"><defs><style>.cls-1{fill:#fff;}.cls-2{fill:none;}</style></defs><title>splash-icon</title><path class="cls-1" d="M402.56,18.15c57.84,49.51,9.55,101.69,9.55,101.69L302,29S348.34-28.27,402.56,18.15Z" transform="translate(0 0)"/><polygon class="cls-2" points="358.63 187.27 248 95.98 307.67 22.03 418.3 113.32 358.63 187.27"/><polygon class="cls-2" points="358.63 187.27 304.02 142.2 363.69 68.25 418.3 113.32 358.63 187.27"/><polygon class="cls-1" points="10.98 507.46 65.89 508.19 0.54 454.26 10.98 507.46"/><polygon class="cls-1" points="19.58 507.57 65.89 508.19 36.2 483.73 19.58 507.57"/><polygon class="cls-1" points="124.34 481.44 13.08 390.69 274.57 62.92 385.83 153.68 124.34 481.44"/><polygon class="cls-1" points="124.34 481.44 69.47 436.68 330.95 108.92 385.83 153.68 124.34 481.44"/><polygon class="cls-2" points="66.45 508.45 0 453.77 12.59 390.24 124.77 481.74 66.45 508.45"/><polygon class="cls-2" points="66.45 508.45 36.26 483.65 69.08 436.32 124.77 481.74 66.45 508.45"/></svg>